<?xml version="1.0"?>
<svg xmlns="http://www.w3.org/2000/svg" id="Capa_1" enable-background="new 0 0 512.014 512.014" height="512px" viewBox="0 0 512.014 512.014" width="512px"><g><path d="m132.116 220.719c-2.164-5.83-1.493-12.333 1.814-17.599 1.805-2.872 44.6-70.759 80.84-108.456 24.957-25.959 53.167-48.33 81.58-64.693 34.013-19.587 66.493-29.669 96.538-29.965 33.652-.33 62.721 11.524 86.434 35.237 28.058 28.058 38.321 63.734 29.683 103.172-6.043 27.584-21.065 56.829-44.649 86.921-6.813 8.694-19.384 10.218-28.078 3.405s-10.219-19.385-3.405-28.079c19.565-24.965 32.38-49.45 37.059-70.807 5.736-26.183-.444-47.879-18.894-66.328-15.825-15.824-34.654-23.527-57.03-23.527-52.459.517-112.44 42.899-150.401 82.386-26.305 27.362-57.899 74.429-70.367 93.561 10 23.711 23.553 44.218 40.369 61.064 7.804 7.817 7.793 20.48-.024 28.284-3.904 3.897-9.018 5.846-14.13 5.846-5.125 0-10.248-1.957-14.154-5.87-23.03-23.069-40.924-51.517-53.185-84.552zm374.033 285.425c-3.905 3.904-9.024 5.857-14.143 5.857s-10.237-1.953-14.143-5.857l-58.393-58.392c-18.685 13.391-41.565 21.284-66.255 21.284-62.859 0-114-51.141-114-114s51.141-114 114-114 114 51.141 114 114c0 23.752-7.306 45.829-19.783 64.108l58.716 58.716c7.81 7.809 7.81 20.473.001 28.284zm-78.933-151.109c0-40.804-33.196-74-74-74s-74 33.196-74 74 33.196 74 74 74 74-33.196 74-74zm-200.347 61.848c1.268 6.505-.769 13.215-5.438 17.918-1.001 1.008-24.63 24.805-35.559 35.558-23.361 23.014-51.433 37.537-79.036 40.884-4.259.516-8.462.772-12.587.772-23.562 0-44.679-8.337-60.416-24.073-22.56-22.56-33.939-48.335-33.825-76.61.161-39.943 23.584-83.163 69.619-128.459 4.739-4.665 11.487-6.671 18.008-5.344 6.518 1.323 11.951 5.801 14.497 11.945 21.869 52.79 58.82 89.702 112.967 112.847 6.095 2.604 10.502 8.057 11.77 14.562zm-53.519 9.509c-40.944-22.701-72.765-54.297-95.037-94.362-25.058 29.195-38.211 56.351-38.305 79.463-.07 17.461 7.162 33.216 22.11 48.163 9.612 9.614 23.787 13.836 39.904 11.877 18.871-2.287 38.684-12.828 55.788-29.678 3.976-3.911 9.783-9.701 15.54-15.463z" data-original="#000000" class="active-path" data-old_color="#000000" fill="#6C757D"/></g> </svg>
