<svg height="512pt" viewBox="0 -104 512 512" width="512pt" xmlns="http://www.w3.org/2000/svg"><path d="m504.5 119.210938c4.140625 0 7.5-3.359376 7.5-7.5v-88.179688c0-4.140625-3.359375-7.5-7.5-7.5h-228.289062l-15.109376-14.027344c-2.875-2.671875-7.328124-2.671875-10.207031 0l-15.105469 14.027344h-228.289062c-4.140625 0-7.5 3.359375-7.5 7.5v88.179688c0 4.140624 3.359375 7.5 7.5 7.5h8.53125v168.4375c-.054688.3125-.117188.621093-.167969.929687h-8.363281c-4.140625 0-7.5 3.359375-7.5 7.5 0 4.144531 3.359375 7.5 7.5 7.5h497c4.140625 0 7.5-3.355469 7.5-7.5 0-4.140625-3.359375-7.5-7.5-7.5h-8.53125v-169.367187zm-7.5-88.179688v73.175781h-33.097656v-24.5625c0-2.191406-.957032-4.273437-2.617188-5.695312l-28.058594-24.046875c-2.808593-2.410156-6.953124-2.410156-9.761718 0l-28.054688 24.046875c-1.664062 1.425781-2.621094 3.503906-2.621094 5.695312v24.5625h-21.617187l-78.808594-73.175781zm-89.210938 73.179688v-21.117188l20.558594-17.621094 20.554688 17.621094v21.117188zm-392.789062-73.179688h204.636719l-78.808594 73.175781h-21.617187v-24.5625c0-2.191406-.957032-4.273437-2.621094-5.695312l-28.054688-24.046875c-2.808594-2.410156-6.953125-2.410156-9.761718 0l-28.058594 24.046875c-1.660156 1.425781-2.617188 3.503906-2.617188 5.695312v24.5625h-33.097656zm48.097656 73.179688v-21.117188l20.554688-17.621094 20.558594 17.621094v21.117188zm41.113282 157.234374c-2.148438.648438-4.238282 1.492188-6.25 2.542969-8.890626-9.746093-21.457032-15.414062-34.863282-15.480469v-17.074218h41.113282zm-41.359376 2.054688c10.96875 0 21.136719 5.484375 27.199219 14.675781 1.171875 1.769531 3.039063 2.964844 5.140625 3.28125 2.101563.316407 4.238282-.269531 5.878906-1.617187 2.714844-2.230469 7.230469-4.890625 13.3125-4.890625 9.007813 0 16.691407 5.675781 19.726563 13.628906h-102.960937c3.398437-14.359375 16.316406-25.078125 31.703124-25.078125zm217.710938-32.066406v57.144531h-49.128906v-57.144531zm40.082031 0v57.144531h-25.082031v-57.144531zm-104.207031 57.144531h-25.082031v-57.144531h25.082031zm232.464844-17.285156c-8.371094-13.660157-23.433594-22.792969-40.597656-22.792969-.171876 0-.34375.011719-.515626.011719v-17.078125h41.113282zm-40.59375-7.792969c15.382812 0 28.300781 10.71875 31.699218 25.078125h-63.402343c3.398437-14.359375 16.316406-25.078125 31.703125-25.078125zm72.660156 25.078125h-17.066406v-64.644531c0-4.144532-3.355469-7.5-7.5-7.5h-56.113282c-4.140624 0-7.5 3.355468-7.5 7.5v27.175781c-6.417968 2.222656-12.214843 5.777344-17.0625 10.339844v-101.644531c0-4.144532-3.359374-7.5-7.5-7.5-4.140624 0-7.5 3.355468-7.5 7.5v128.773437h-25.082031v-64.644531c0-4.144532-3.359375-7.5-7.5-7.5h-144.289062c-4.140625 0-7.5 3.355468-7.5 7.5v64.644531h-26.632813c-3.136718-14.792969-15.347656-26.261719-30.511718-28.296875v-36.347656c0-4.144532-3.359376-7.5-7.5-7.5h-56.113282c-4.144531 0-7.5 3.355468-7.5 7.5v26.917968c-6.386718 2.085938-12.183594 5.484376-17.066406 9.886719v-141.527343h105.246094v128.773437c0 4.144531 3.355468 7.5 7.5 7.5 4.140625 0 7.5-3.355469 7.5-7.5v-133.003906l104.722656-97.246094 104.726562 97.246094v12.757812c0 4.144531 3.359376 7.5 7.5 7.5 4.140626 0 7.5-3.355469 7.5-7.5v-8.527343h105.242188zm0 0"/><path d="m111.710938 136.273438h-56.113282c-4.144531 0-7.5 3.359374-7.5 7.5v48.097656c0 4.140625 3.355469 7.5 7.5 7.5h56.113282c4.140624 0 7.5-3.359375 7.5-7.5v-48.097656c0-4.140626-3.359376-7.5-7.5-7.5zm-7.5 48.097656h-41.113282v-33.097656h41.113282zm0 0"/><path d="m239.96875 136.273438h-56.113281c-4.140625 0-7.5 3.359374-7.5 7.5v48.097656c0 4.140625 3.359375 7.5 7.5 7.5h56.113281c4.140625 0 7.5-3.359375 7.5-7.5v-48.097656c0-4.140626-3.359375-7.5-7.5-7.5zm-7.5 48.097656h-41.113281v-33.097656h41.113281zm0 0"/><path d="m328.144531 136.273438h-56.113281c-4.140625 0-7.5 3.359374-7.5 7.5v48.097656c0 4.140625 3.359375 7.5 7.5 7.5h56.113281c4.140625 0 7.5-3.359375 7.5-7.5v-48.097656c0-4.140626-3.359375-7.5-7.5-7.5zm-7.5 48.097656h-41.113281v-33.097656h41.113281zm0 0"/><path d="m400.289062 136.273438c-4.140624 0-7.5 3.359374-7.5 7.5v48.097656c0 4.140625 3.359376 7.5 7.5 7.5h56.113282c4.144531 0 7.5-3.359375 7.5-7.5v-48.097656c0-4.140626-3.355469-7.5-7.5-7.5zm48.613282 48.097656h-41.113282v-33.097656h41.113282zm0 0"/><path d="m239.96875 111.191406h32.0625c4.144531 0 7.5-3.355468 7.5-7.5v-24.078125c0-12.960937-10.542969-23.5-23.5625-23.5-12.957031 0-23.5 10.539063-23.5 23.5v24.078125c0 4.144532 3.355469 7.5 7.5 7.5zm7.5-31.582031c0-4.683594 3.8125-8.5 8.5625-8.5 4.6875 0 8.5 3.816406 8.5 8.5v16.582031h-17.0625zm0 0"/></svg>