<svg height="512pt" viewBox="0 -86 512 511" width="512pt" xmlns="http://www.w3.org/2000/svg"><path d="m15.03125 291.761719v-52.605469h132.972656v-15.027344h-148.003906v67.632813c0 26.242187 21.351562 47.59375 47.59375 47.59375h37v-15.03125h-37c-17.957031 0-32.5625-14.605469-32.5625-32.5625zm0 0"/><path d="m99.621094 324.324219h260.511718v15.03125h-260.511718zm0 0"/><path d="m294.074219 234.148438h15.03125v15.027343h-15.03125zm0 0"/><path d="m67.804688 138.960938h176.007812v-15.027344h-186.375l-30.015625 78.988281 14.050781 5.339844zm0 0"/><path d="m258.84375 138.960938h55.453125l18.140625 39.695312 13.667969-6.246094-22.15625-48.476562h-65.105469zm0 0"/><path d="m374.730469 162.007812v32.0625h-74.105469l-74.144531 30.058594h-63.445313v15.027344h66.375l74.144532-30.058594h190.046874l-11.742187 25.050782h-157.726563v15.027343h150.683594l-35.226562 75.148438h-64.429688v15.03125h73.984375l62.855469-134.09375v-43.253907zm41.082031 32.0625h-26.050781v-17.035156h26.050781zm40.078125 0h-25.050781v-17.035156h25.050781zm41.078125 0h-26.050781v-17.035156h26.050781zm0 0"/><path d="m109.070312 68.824219h163.605469l13.378907 39.011719 14.214843-4.875-16.859375-49.164063h-20.011718l-147.171876-53.296875v53.296875h-17.890624l-16.859376 49.164063 14.214844 4.871093zm22.1875-46.898438 88.003907 31.871094h-88.003907zm0 0"/><path d="m121.238281 203.085938v-45.085938h-45.089843v45.085938zm-30.058593-30.058594h15.027343v15.03125h-15.027343zm0 0"/><path d="m183.359375 203.085938v-45.085938h-45.089844v45.085938zm-30.058594-30.058594h15.027344v15.03125h-15.027344zm0 0"/><path d="m200.390625 203.085938h45.089844v-45.085938h-45.089844zm15.03125-30.058594h15.027344v15.03125h-15.027344zm0 0"/><path d="m167.828125 309.296875h-50.097656v-15.03125h50.097656zm-65.128906 0h-15.027344v-15.03125h15.027344zm-30.058594 0h-15.027344v-15.03125h15.027344zm0 0"/><path d="m258.503906 103.894531h-15.027344v-15.03125h15.027344zm-30.058594 0h-15.027343v-15.03125h15.027343zm-30.058593 0h-15.027344v-15.03125h15.027344zm-30.058594 0h-15.027344v-15.03125h15.027344zm-30.058594 0h-15.027343v-15.03125h15.027343zm0 0"/></svg>