<?xml version="1.0" encoding="iso-8859-1"?>
<!-- Generator: Adobe Illustrator 19.0.0, SVG Export Plug-In . SVG Version: 6.00 Build 0)  -->
<svg version="1.1" id="Capa_1" xmlns="http://www.w3.org/2000/svg" xmlns:xlink="http://www.w3.org/1999/xlink" x="0px" y="0px"
	 viewBox="0 0 512 512" style="enable-background:new 0 0 512 512;" xml:space="preserve">
<g>
	<g>
		<path d="M447.786,113.153c-2.522-29.474-21.625-48.576-51.097-51.097c-4.093-0.35-7.694,2.684-8.044,6.776
			c-0.35,4.091,2.684,7.694,6.776,8.044c22.303,1.909,35.636,15.244,37.545,37.545c0.156,1.817,0.952,3.426,2.149,4.622
			c1.498,1.497,3.621,2.348,5.895,2.154C445.102,120.846,448.136,117.245,447.786,113.153z"/>
	</g>
</g>
<g>
	<g>
		<path d="M486.135,23.709c-7.012-7.011-16.699-10.51-26.57-9.608l-11.54,1.057c-44.487,4.079-85.095,24.921-114.343,58.69
			l-17.76,20.504l-40.965-16.978l2.191-2.191c6.524-6.525,6.524-17.141,0-23.665L264.734,39.1c-6.524-6.522-17.14-6.524-23.665,0
			l-17.128,17.128l-19.694-8.162l4.936-4.936c6.524-6.525,6.524-17.14,0-23.664L196.767,7.05c-6.526-6.524-17.142-6.522-23.665,0
			L153.23,26.922l-33.485-13.878c-15.873-6.579-33.978-2.978-46.128,9.17L51.329,44.502c-4.731,4.731-7.168,11.273-6.686,17.947
			c0.482,6.674,3.835,12.797,9.196,16.8L220.955,203.99l-55.781,64.4c-2.689,3.104-2.352,7.801,0.752,10.49
			c1.407,1.218,3.14,1.816,4.866,1.816c2.082,0,4.153-0.87,5.624-2.568l61.015-70.443c0.001-0.001,0.001-0.001,0.002-0.002
			l36.037-41.605l71.454-82.494c26.72-30.849,63.817-49.889,104.459-53.615l11.54-1.057c5.47-0.501,10.818,1.436,14.695,5.314
			c3.878,3.877,5.815,9.233,5.314,14.695l-1.057,11.54c-2.451,26.738-11.787,52.568-26.999,74.694
			c-2.327,3.385-1.469,8.015,1.915,10.342c3.386,2.328,8.015,1.469,10.342-1.915c16.651-24.221,26.87-52.494,29.553-81.763
			l1.057-11.54C496.648,40.405,493.146,30.72,486.135,23.709z M251.586,49.619c0.722-0.726,1.903-0.727,2.629,0l12.415,12.415
			c0.725,0.724,0.725,1.905,0.001,2.629l-6.546,6.545l-6.039-2.503l-15.234-6.314L251.586,49.619z M183.62,17.568
			c0.723-0.726,1.904-0.727,2.629,0l12.415,12.415c0.725,0.724,0.725,1.904,0,2.628l-9.289,9.29l-21.273-8.816L183.62,17.568z
			 M230.72,192.717L62.736,67.329c-1.928-1.438-3.084-3.552-3.258-5.951c-0.173-2.399,0.667-4.657,2.369-6.357l22.287-22.287
			c5.265-5.264,12.252-8.053,19.381-8.053c3.541,0,7.119,0.689,10.537,2.105l191.608,79.411L230.72,192.717z"/>
	</g>
</g>
<g>
	<g>
		<path d="M507.107,317.391l-12.415-12.417c-6.526-6.524-17.142-6.522-23.665,0l-6.147,6.147l-9.426-22.744l15.289-15.289
			c6.524-6.525,6.524-17.14,0-23.664l-12.415-12.417c-6.526-6.524-17.142-6.523-23.665,0.001l-0.352,0.352l-18.218-43.958
			l19.906-17.242c1.469-1.273,2.934-2.586,4.355-3.903c3.013-2.792,3.191-7.498,0.398-10.509c-2.79-3.012-7.496-3.19-10.509-0.398
			c-1.3,1.204-2.639,2.404-3.982,3.568l-217.29,188.207c-11.357,9.837-23.185,19.094-35.427,27.755
			c-16.904,11.96-34.768,22.862-53.095,32.407c-0.004,0.002-0.008,0.005-0.012,0.007c-4.735,2.466-9.512,4.854-14.334,7.155
			c-5.894,2.813-11.231,0.579-14.26-2.449c-3.028-3.029-5.262-8.366-2.45-14.261c2.451-5.137,5.009-10.221,7.648-15.26
			c0.989-1.889,1.988-3.775,3.006-5.654c0.229-0.423,0.464-0.842,0.694-1.265c1.006-1.843,2.02-3.681,3.053-5.513
			c0.216-0.383,0.437-0.764,0.654-1.147c1.061-1.869,2.132-3.733,3.22-5.589c0.202-0.344,0.407-0.686,0.609-1.03
			c1.109-1.881,2.23-3.755,3.367-5.621c0.206-0.338,0.415-0.675,0.622-1.013c1.132-1.849,2.277-3.69,3.435-5.523
			c0.236-0.374,0.474-0.745,0.711-1.118c1.129-1.775,2.27-3.542,3.422-5.301c0.285-0.434,0.571-0.867,0.857-1.3
			c1.11-1.682,2.232-3.355,3.363-5.02c0.335-0.493,0.672-0.986,1.009-1.478c1.103-1.609,2.216-3.21,3.337-4.803
			c7.973-11.322,16.448-22.294,25.424-32.861c2.658-3.131,2.277-7.824-0.854-10.483c-3.133-2.657-7.823-2.276-10.483,0.854
			c-7.711,9.079-15.062,18.45-22.059,28.072l-67.207-30.423c-12.68-5.741-27.805-2.985-37.642,6.855L4.138,310.56
			c-2.895,2.895-4.39,6.899-4.103,10.984c0.288,4.085,2.33,7.838,5.602,10.298l74.856,56.302c-1.537,3.049-3.053,6.108-4.524,9.19
			c-5.067,10.622-2.964,22.862,5.357,31.183c5.308,5.309,12.21,8.086,19.27,8.086c4.007,0,8.066-0.896,11.912-2.731
			c3.083-1.471,6.142-2.987,9.19-4.523L178,504.205c2.461,3.272,6.214,5.314,10.298,5.602c0.333,0.023,0.664,0.035,0.995,0.035
			c3.734,0,7.328-1.479,9.988-4.139l11.439-11.44c9.84-9.838,12.595-24.966,6.857-37.642l-30.419-67.198
			c10.857-7.895,21.385-16.252,31.55-25.056l87.357-75.665l125.916,168.689c4.003,5.363,10.127,8.715,16.801,9.196
			c0.556,0.04,1.11,0.06,1.664,0.06c6.086,0,11.946-2.41,16.283-6.747l22.286-22.286c12.15-12.149,15.75-30.255,9.172-46.127
			l-12.163-29.348l21.084-21.084C513.631,334.53,513.631,323.915,507.107,317.391z M15.262,320.471l10.835-10.834
			c5.486-5.486,13.922-7.022,20.99-3.822l64.628,29.256c-0.139,0.204-0.275,0.412-0.413,0.616c-0.807,1.192-1.608,2.388-2.405,3.587
			c-0.388,0.584-0.773,1.171-1.158,1.757c-2.71,4.122-5.356,8.285-7.937,12.489c-0.322,0.525-0.646,1.048-0.966,1.574
			c-0.763,1.254-1.519,2.512-2.27,3.773c-0.389,0.652-0.774,1.306-1.159,1.96c-0.725,1.23-1.449,2.46-2.163,3.696
			c-0.364,0.63-0.72,1.264-1.081,1.895c-1.181,2.067-2.346,4.143-3.496,6.228c-0.394,0.715-0.795,1.428-1.185,2.144L15.262,320.471z
			 M204.028,462.756c3.199,7.068,1.664,15.503-3.824,20.99l-10.833,10.834l-54.319-72.22c1.17-0.637,2.334-1.286,3.499-1.934
			c1.664-0.924,3.321-1.859,4.973-2.803c0.78-0.446,1.56-0.891,2.338-1.341c1.244-0.72,2.483-1.446,3.72-2.177
			c0.619-0.366,1.236-0.736,1.854-1.105c4.262-2.546,8.483-5.158,12.663-7.836c0.546-0.35,1.093-0.7,1.638-1.052
			c1.291-0.835,2.58-1.674,3.863-2.522c0.515-0.34,1.027-0.685,1.541-1.027c1.213-0.808,2.43-1.609,3.635-2.428L204.028,462.756z
			 M445.179,247.526c0.723-0.726,1.904-0.726,2.629-0.001l12.415,12.417c0.725,0.724,0.725,1.904,0,2.628l-10.934,10.935
			l-6.7-16.167l-2.116-5.107L445.179,247.526z M478.497,427.096l-22.287,22.287c-1.699,1.7-3.955,2.532-6.357,2.37
			c-2.4-0.173-4.513-1.331-5.952-3.258L317.339,278.938l26.526-22.976l60.378-52.297l80.203,193.515
			C488.713,407.474,486.378,419.217,478.497,427.096z M496.589,330.536l-16.729,16.73l-8.817-21.274l10.502-10.501
			c0.723-0.726,1.904-0.726,2.629-0.001l12.415,12.416v0.001C497.314,328.632,497.314,329.812,496.589,330.536z"/>
	</g>
</g>
<g>
</g>
<g>
</g>
<g>
</g>
<g>
</g>
<g>
</g>
<g>
</g>
<g>
</g>
<g>
</g>
<g>
</g>
<g>
</g>
<g>
</g>
<g>
</g>
<g>
</g>
<g>
</g>
<g>
</g>
</svg>
